<?xml version="1.0" encoding="UTF-8" standalone="no"?>
<!-- Created with Inkscape (http://www.inkscape.org/) -->

<svg
   width="42.821007mm"
   height="37.429676mm"
   viewBox="0 0 42.821007 37.429676"
   version="1.1"
   id="svg1"
   xmlns="http://www.w3.org/2000/svg"
   xmlns:svg="http://www.w3.org/2000/svg">
  <defs
     id="defs1" />
  <g
     id="layer1"
     style="display:inline"
     transform="translate(-46.264765,-204.3008)">
    <path
       style="color:#000000;fill:#919191;stroke-linecap:square;stroke-linejoin:bevel;stroke-dashoffset:27.7024;-inkscape-stroke:none"
       d="m 58.262182,204.30665 c -2.470744,-0.0789 -4.920855,0.64237 -6.955078,2.04687 -2.034235,1.4045 -3.577081,3.44097 -4.378907,5.7793 -0.812347,2.36901 -0.816478,4.86505 -0.347656,7.17383 0.466674,2.2982 1.383574,4.39883 2.431641,6.32422 3.919078,7.19969 10.323606,12.96174 17.896484,16.09961 h 1.53125 c 7.572878,-3.13787 13.97936,-8.89992 17.898434,-16.09961 1.04806,-1.92539 1.96497,-4.02602 2.43164,-6.32422 0.46883,-2.30878 0.46469,-4.80482 -0.34765,-7.17383 -0.80183,-2.33833 -2.34468,-4.3748 -4.37891,-5.7793 -2.034229,-1.4045 -4.486299,-2.12573 -6.957029,-2.04687 -2.47071,0.0789 -4.870012,0.95497 -6.810547,2.48633 -1.044625,0.82435 -1.900019,1.84113 -2.601563,2.95898 -0.701477,-1.11758 -1.555198,-2.1348 -2.599609,-2.95898 -1.940531,-1.53135 -4.341778,-2.40747 -6.8125,-2.48633 z m -0.126953,3.99804 c 1.595469,0.0509 3.207842,0.64004 4.460937,1.62891 1.253097,0.98887 2.200654,2.41907 2.621094,3.95898 0.416857,1.52679 0.16129,1.37233 0.527344,1.92969 0.472314,0.71915 1.154407,1.63202 2.014592,1.61361 0.817273,-0.0175 1.412709,-0.92089 1.846736,-1.61361 0.354043,-0.56506 0.110487,-0.4029 0.527344,-1.92969 0.42044,-1.53991 1.367997,-2.97011 2.621093,-3.95898 1.253092,-0.98886 2.865455,-1.57798 4.460938,-1.62891 1.595461,-0.0509 3.241079,0.43289 4.554687,1.33985 1.313596,0.90694 2.351366,2.27519 2.869146,3.78515 0.52957,1.54439 0.56539,3.33453 0.21093,5.08008 -0.3566,1.75614 -1.09553,3.50075 -2.02539,5.20899 -3.332468,6.12204 -8.786499,11.06997 -15.150389,13.91797 -6.363782,-2.84802 -11.816011,-7.79601 -15.148437,-13.91797 -0.929859,-1.70823 -1.668789,-3.45285 -2.025391,-5.20899 -0.354455,-1.74556 -0.318639,-3.53569 0.210938,-5.08008 0.517777,-1.50997 1.553591,-2.87821 2.867187,-3.78515 1.313606,-0.90696 2.961192,-1.39078 4.556641,-1.33985 z"
       id="path4" />
  </g>
</svg>
