<?xml version="1.0" encoding="UTF-8" standalone="no"?>
<!-- Created with Inkscape (http://www.inkscape.org/) -->

<svg
   width="42.68895mm"
   height="37.86681mm"
   viewBox="0 0 42.68895 37.86681"
   version="1.1"
   id="svg1"
   xmlns="http://www.w3.org/2000/svg"
   xmlns:svg="http://www.w3.org/2000/svg">
  <defs
     id="defs1" />
  <g
     id="layer1"
     style="display:inline"
     transform="translate(-75.638647,-560.61708)">
    <path
       style="font-variation-settings:'wght' 800;fill:none;fill-opacity:1;stroke:#e4e2de;stroke-width:3;stroke-linecap:round;stroke-linejoin:bevel;stroke-dasharray:none;stroke-opacity:1"
       d="m 77.815296,568.78722 c -0.688743,1.85929 -0.822077,3.90055 -0.531471,5.8619 0.290606,1.96134 0.994382,3.84677 1.925177,5.59747 3.385214,6.36712 9.538644,10.77128 15.175918,15.17592 0.796205,0.62211 1.587779,1.5614 2.598205,1.5614 1.010426,0 1.802,-0.93929 2.598205,-1.5614 5.63727,-4.40464 11.79071,-8.8088 15.17592,-15.17592 0.93079,-1.7507 1.63457,-3.63613 1.92517,-5.59747 0.29061,-1.96135 0.15727,-4.00261 -0.53147,-5.8619 -0.71953,-1.9424 -2.04548,-3.65521 -3.74563,-4.83847 -1.70016,-1.18326 -3.79866,-1.83166 -5.83828,-1.83166 -2.03962,0 -4.13813,0.6484 -5.83828,1.83166 -1.700156,1.18326 -2.3795,1.66347 -3.745635,1.66347 -1.366134,0 -2.045478,-0.48021 -3.745632,-1.66347 -1.700153,-1.18326 -3.798659,-1.83167 -5.838282,-1.83167 -2.039623,0 -4.13813,0.64841 -5.838283,1.83167 -1.700154,1.18326 -3.026104,2.89607 -3.745632,4.83847 z"
       id="path3" />
  </g>
</svg>
