<?xml version="1.0" encoding="UTF-8" standalone="no"?>
<!-- Created with Inkscape (http://www.inkscape.org/) -->

<svg
   width="42.688942mm"
   height="37.86681mm"
   viewBox="0 0 42.688942 37.86681"
   version="1.1"
   id="svg1"
   xmlns="http://www.w3.org/2000/svg"
   xmlns:svg="http://www.w3.org/2000/svg">
  <defs
     id="defs1" />
  <g
     id="layer1"
     style="display:inline"
     transform="translate(-127.45848,-560.67464)">
    <path
       style="font-variation-settings:'wght' 800;display:inline;fill:#e4e2de;fill-opacity:1;stroke:#e4e2de;stroke-width:3;stroke-linecap:round;stroke-linejoin:bevel;stroke-dasharray:none;stroke-opacity:1"
       d="m 129.63514,568.84474 c -0.68874,1.85929 -0.82208,3.90055 -0.53147,5.8619 0.29061,1.96134 0.99438,3.84677 1.92518,5.59747 3.38521,6.36712 9.53864,10.77128 15.17591,15.17592 0.79621,0.62211 1.58778,1.5614 2.59821,1.5614 1.01043,0 1.802,-0.93929 2.59821,-1.5614 5.63727,-4.40464 11.7907,-8.8088 15.17591,-15.17592 0.93079,-1.7507 1.63457,-3.63613 1.92518,-5.59747 0.2906,-1.96135 0.15726,-4.00261 -0.53148,-5.8619 -0.71952,-1.9424 -2.04548,-3.65521 -3.74563,-4.83847 -1.70015,-1.18326 -3.79865,-1.83166 -5.83828,-1.83166 -2.03961,0 -4.13813,0.6484 -5.83828,1.83166 -1.70015,1.18326 -2.37949,1.66347 -3.74563,1.66347 -1.36613,0 -2.04548,-0.48021 -3.74563,-1.66347 -1.70016,-1.18326 -3.79866,-1.83167 -5.83828,-1.83167 -2.03963,0 -4.13813,0.64841 -5.83829,1.83167 -1.70015,1.18326 -3.0261,2.89607 -3.74563,4.83847 z"
       id="path3-6" />
  </g>
</svg>
